<?xml version="1.0" encoding="UTF-8"?>
<svg width="12px" height="17px" viewBox="0 0 12 17" version="1.1" xmlns="http://www.w3.org/2000/svg" xmlns:xlink="http://www.w3.org/1999/xlink">
    <title>编组 3</title>
    <g id="APP" stroke="none" stroke-width="1" fill="none" fill-rule="evenodd">
        <g id="我的" transform="translate(-345.000000, -355.000000)" fill="#BDBDBD">
            <g id="编组-3" transform="translate(342.000000, 355.000000)">
                <g transform="translate(6.698749, 8.487923) rotate(45.000000) translate(-6.698749, -8.487923) translate(1.961906, 3.631009)" id="形状结合">
                    <path d="M8.86654135,1.29326018e-13 C8.87636713,-0.000438056736 8.87874829,-0.00045215139 8.88113275,-0.00045215139 C9.20814345,-0.00045215139 9.47323801,0.264642405 9.47323801,0.591653112 L9.47323801,9.12172292 C9.47323801,9.44873362 9.20814345,9.71382818 8.88113275,9.71382818 C8.55412204,9.71382818 8.28902748,9.44873362 8.28902748,9.12172292 L8.289,1.214 L0.607142857,1.21428571 C0.271827116,1.21428571 -1.41642759e-14,0.942458598 -1.42053403e-14,0.607142857 C-1.42464046e-14,0.271827116 0.271827116,1.29387615e-13 0.607142857,1.29326018e-13 L8.86654135,1.29326018e-13 Z"></path>
                </g>
            </g>
        </g>
    </g>
</svg>