<?xml version="1.0" encoding="UTF-8"?>
<svg width="23px" height="23px" viewBox="0 0 23 23" version="1.1" xmlns="http://www.w3.org/2000/svg" xmlns:xlink="http://www.w3.org/1999/xlink">
    <title>编组 9</title>
    <g id="APP" stroke="none" stroke-width="1" fill="none" fill-rule="evenodd">
        <g id="我的" transform="translate(-20.000000, -407.000000)" stroke-width="1.53">
            <g id="编组-9" transform="translate(20.000000, 407.000000)">
                <g transform="translate(2.000000, 2.000000)">
                    <line x1="1.71904762" y1="5.85971187" x2="18.0047619" y2="5.85971187" id="直线-2" stroke="#241D32" stroke-linecap="square"></line>
                    <path d="M14.5,1.80560848 C15.5313918,1.80560848 16.4651418,2.22366259 17.1410438,2.89956465 C17.8169459,3.57546671 18.235,4.50921671 18.235,5.54060848 L18.235,5.54060848 L18.235,14.5 C18.235,15.5313918 17.8169459,16.4651418 17.1410438,17.1410438 C16.4651418,17.8169459 15.5313918,18.235 14.5,18.235 L14.5,18.235 L4.5,18.235 C3.46860823,18.235 2.53485823,17.8169459 1.85895617,17.1410438 C1.18305411,16.4651418 0.765,15.5313918 0.765,14.5 L0.765,14.5 L0.765,5.54060848 C0.765,4.50921671 1.18305411,3.57546671 1.85895617,2.89956465 C2.53485823,2.22366259 3.46860823,1.80560848 4.5,1.80560848 L4.5,1.80560848 Z" id="矩形" stroke="#241D32"></path>
                    <polyline id="路径-7" stroke="#4859DE" stroke-linecap="round" stroke-linejoin="round" points="6.4338158 11.6546556 9.40952381 14.1869766 13.1657436 9.85333071"></polyline>
                    <line x1="5.33809524" y1="3.51880203e-15" x2="5.33809524" y2="3.16580314" id="直线-5" stroke="#241D32" stroke-linecap="round"></line>
                    <line x1="13.4809524" y1="3.51880203e-15" x2="13.4809524" y2="3.16580314" id="直线-5备份" stroke="#241D32" stroke-linecap="round"></line>
                </g>
            </g>
        </g>
    </g>
</svg>