<?xml version="1.0" encoding="UTF-8"?>
<svg width="23px" height="23px" viewBox="0 0 23 23" version="1.1" xmlns="http://www.w3.org/2000/svg" xmlns:xlink="http://www.w3.org/1999/xlink">
    <title>编组 6</title>
    <g id="APP" stroke="none" stroke-width="1" fill="none" fill-rule="evenodd">
        <g id="我的" transform="translate(-20.000000, -463.000000)" fill-rule="nonzero">
            <g id="编组-6" transform="translate(20.000000, 463.000000)">
                <g transform="translate(1.533333, 0.766667)" id="编组-2">
                    <path d="M9.66191667,0 C15.0040974,0 19.3238333,4.45773583 19.3238333,9.94357729 C19.3238333,13.9806115 16.9635307,17.5738266 13.4036463,19.1138578 C12.9752007,19.2992064 12.4776223,19.1021374 12.2922737,18.6736918 C12.1069251,18.2452463 12.3039941,17.7476678 12.7324397,17.5623192 C15.6735501,16.289974 17.6333333,13.3064911 17.6333333,9.94357729 C17.6333333,5.37968392 14.058357,1.6905 9.66191667,1.6905 C5.26547636,1.6905 1.6905,5.37968392 1.6905,9.94357729 C1.6905,10.410396 1.31206868,10.7888273 0.84525,10.7888273 C0.378431315,10.7888273 0,10.410396 0,9.94357729 C0,4.45773583 4.31973589,0 9.66191667,0 Z" id="路径" fill="#241D32"></path>
                    <path d="M11.1998453,15.66731 L7.798794,15.66731 C6.39833794,15.66731 5.263044,16.802604 5.263044,18.20306 L5.263044,18.3214167 C5.263044,19.7218727 6.39833794,20.8571667 7.798794,20.8571667 L11.1998453,20.8571667 C12.6003013,20.8571667 13.7355953,19.7218727 13.7355953,18.3214167 L13.7355953,18.20306 C13.7355953,16.802604 12.6003013,15.66731 11.1998453,15.66731 Z M7.798794,17.35781 L11.1998453,17.35781 C11.666664,17.35781 12.0450953,17.7362413 12.0450953,18.20306 L12.0450953,18.3214167 C12.0450953,18.7882354 11.666664,19.1666667 11.1998453,19.1666667 L7.798794,19.1666667 C7.33197531,19.1666667 6.953544,18.7882354 6.953544,18.3214167 L6.953544,18.20306 C6.953544,17.7362413 7.33197531,17.35781 7.798794,17.35781 Z" id="矩形" fill="#241D32"></path>
                    <path d="M5.81604058,9.25434414 C6.19669354,8.98411644 6.72433656,9.07363379 6.99456427,9.45428674 C7.83931398,10.6442331 8.76852475,11.1979413 9.82881871,11.1979413 C10.8891127,11.1979413 11.8183234,10.6442331 12.6630731,9.45428674 C12.9333009,9.07363379 13.4609439,8.98411644 13.8415968,9.25434414 C14.2222498,9.52457185 14.3117671,10.0522149 14.0415394,10.4328678 C12.8989185,12.0424068 11.4791376,12.8884413 9.82881871,12.8884413 C8.17849985,12.8884413 6.7587189,12.0424068 5.61609799,10.4328678 C5.34587028,10.0522149 5.43538763,9.52457185 5.81604058,9.25434414 Z" id="路径-4" fill="#4859DE"></path>
                </g>
            </g>
        </g>
    </g>
</svg>