<?xml version="1.0" encoding="UTF-8"?>
<svg width="22px" height="21px" viewBox="0 0 22 21" version="1.1" xmlns="http://www.w3.org/2000/svg" xmlns:xlink="http://www.w3.org/1999/xlink">
    <title>编组 13</title>
    <g id="APP" stroke="none" stroke-width="1" fill="none" fill-rule="evenodd">
        <g id="我的" transform="translate(-47.000000, -737.000000)">
            <g id="编组-13" transform="translate(47.000000, 737.000000)">
                <g transform="translate(0.000000, 0.000000)">
                    <g id="编组-10" fill="#BEC8DC">
                        <polygon id="矩形" points="0 6.63085937 11 2.2182368e-14 22 6.63085937 22 20.6308594 0 20.6308594"></polygon>
                    </g>
                    <path d="M8.5,9.96593094 C9.59309968,10.1003027 10.4222323,10.1674886 10.9873978,10.1674886 C11.5525632,10.1674886 12.3900973,10.1003027 13.5,9.96593094 C13.305897,10.9692996 13.2088455,11.7769681 13.2088455,12.3889364 C13.2088455,13.0009047 13.305897,13.8599029 13.5,14.9659309 C12.4421751,14.7270008 11.6055905,14.6075357 10.9902462,14.6075357 C10.3749019,14.6075357 9.54481985,14.7270008 8.5,14.9659309 C8.67919896,13.832013 8.76879844,12.9720654 8.76879844,12.3860879 C8.76879844,11.8001105 8.67919896,10.9933915 8.5,9.96593094 Z" id="矩形备份-4" fill="#FFFFFF" transform="translate(11.000000, 12.465931) rotate(45.000000) translate(-11.000000, -12.465931) "></path>
                </g>
            </g>
        </g>
    </g>
</svg>