<?xml version="1.0" encoding="UTF-8"?>
<svg width="23px" height="23px" viewBox="0 0 23 23" version="1.1" xmlns="http://www.w3.org/2000/svg" xmlns:xlink="http://www.w3.org/1999/xlink">
    <title>编组 8</title>
    <g id="APP" stroke="none" stroke-width="1" fill="none" fill-rule="evenodd">
        <g id="我的" transform="translate(-21.000000, -632.000000)" stroke-width="1.53">
            <g id="编组-8" transform="translate(21.000000, 632.000000)">
                <g transform="translate(3.000000, 4.000000)">
                    <path d="M9,0 C13.9705627,0 18,3.37529881 18,7.53894091 C18,11.702583 13.9705627,15.0778818 9,15.0778818 C8.38211821,15.0778818 7.77877919,15.0257249 7.19591522,14.9263803 L4.26364786,15.9485058 C4.02518507,16.031674 3.76275053,16.0108231 3.5404123,15.8910434 C3.10281715,15.655299 2.9391848,15.1094495 3.17492921,14.6718543 L3.17492921,14.6718543 L3.72597816,13.6484889 C1.46847425,12.2787031 0,10.0524726 0,7.53894091 C0,3.37529881 4.02943725,0 9,0 Z" id="形状结合" stroke="#241D32"></path>
                    <line x1="6.3250774" y1="5.76507246" x2="11.6749226" y2="5.76507246" id="直线-6" stroke="#4859DE" stroke-linecap="round"></line>
                    <line x1="6.3250774" y1="9.31280935" x2="9" y2="9.31280935" id="直线-6备份" stroke="#4859DE" stroke-linecap="round"></line>
                </g>
            </g>
        </g>
    </g>
</svg>