<?xml version="1.0" encoding="UTF-8"?>
<svg width="17px" height="17px" viewBox="0 0 17 17" version="1.1" xmlns="http://www.w3.org/2000/svg" xmlns:xlink="http://www.w3.org/1999/xlink">
    <title>编组</title>
    <defs>
        <linearGradient x1="50%" y1="0%" x2="50%" y2="100%" id="linearGradient-1">
            <stop stop-color="#FF843C" offset="0%"></stop>
            <stop stop-color="#F46C06" offset="100%"></stop>
        </linearGradient>
    </defs>
    <g id="APP" stroke="none" stroke-width="1" fill="none" fill-rule="evenodd">
        <g id="首页" transform="translate(-10.000000, -265.000000)" fill="url(#linearGradient-1)" fill-rule="nonzero">
            <g id="形状" transform="translate(10.000000, 265.000000)">
                <path d="M13.2468243,0.19445078 C13.4937566,0.453927061 13.4971127,0.860539994 13.2542428,1.12407887 L13.2468243,1.13202743 L11.8077985,2.62264713 L14.4809562,2.62264713 C15.8980795,2.64931896 17.025172,3.81934679 16.9995603,5.23630984 L16.9995603,14.3858074 C17.0255253,15.8031237 15.8982561,16.9733282 14.4809562,17 L2.51904381,17 C1.1017439,16.9733282 -0.0255253016,15.8029471 0.000439689384,14.3858074 L0.000439689384,5.23648648 C-0.0255253016,3.81917016 1.1017439,2.64896569 2.51904381,2.62229386 L5.19626401,2.62229386 L3.75776818,1.13167416 C3.50818633,0.869195091 3.50818633,0.457106484 3.75776818,0.194627414 C3.99569228,-0.0547806924 4.39099602,-0.0639656935 4.64022461,0.173961162 C4.64711328,0.180673278 4.65417858,0.187562029 4.66089062,0.194627414 L7.00462848,2.62247049 L9.99749111,2.62247049 L12.3414056,0.194627414 C12.5786232,-0.055487231 12.9737503,-0.0659086746 13.223862,0.171311642 C13.2316339,0.178906932 13.2392291,0.186502221 13.2468243,0.19445078 Z M5.65789114,7.67057655 L5.65789114,12.0442319 C5.65877991,12.2782863 5.71838675,12.5083759 5.83125084,12.7134214 C6.17774768,13.3243044 6.95374929,13.5386142 7.56484777,13.1923359 C7.57374943,13.1872174 7.58287362,13.1820989 7.59155273,13.1767578 L11.012458,11.015634 C11.1864152,10.9061089 11.3310814,10.7558651 11.4339513,10.5778901 C11.8082658,9.96055332 11.6340159,9.15783746 11.0371601,8.75147229 L7.59177528,6.56408826 C7.39503988,6.42822872 7.16122828,6.35627391 6.92214842,6.35795211 C6.21135142,6.37314559 5.64631899,6.95977132 5.65789114,7.67057655 Z"></path>
            </g>
        </g>
    </g>
</svg>