<?xml version="1.0" encoding="UTF-8"?>
<svg width="14px" height="20px" viewBox="0 0 14 20" version="1.1" xmlns="http://www.w3.org/2000/svg" xmlns:xlink="http://www.w3.org/1999/xlink">
    <title>编组</title>
    <g id="APP" stroke="none" stroke-width="1" fill="none" fill-rule="evenodd">
        <g id="注册" transform="translate(-78.000000, -226.000000)" fill="#FFFFFF" fill-rule="nonzero">
            <g id="形状" transform="translate(78.000000, 226.000000)">
                <path d="M2.66534085,0 L11.334718,0 C12.800679,0 14,1.23533327 14,2.74509527 L14,17.2549249 C14,18.7648081 12.800679,20 11.334718,20 L2.66534085,20 C1.19941907,20 0,18.7648081 0,17.2549249 L0,2.74509527 C0,1.23535345 1.19941907,0 2.66534085,0 Z M7.00008824,16.1354616 C6.37792832,16.1354616 5.87335352,16.6549376 5.87335352,17.295756 C5.87335352,17.9366148 6.37790872,18.4560909 7.00008824,18.4560909 C7.62216972,18.4560909 8.12672493,17.9366148 8.12672493,17.295756 C8.12672493,16.6549376 7.62216972,16.1354616 7.00008824,16.1354616 Z M2.32664398,2.80244461 C1.63738781,2.80244461 1.07348124,3.38310677 1.07348124,4.09296652 L1.07348124,13.9303589 C1.07348124,14.6401985 1.63738779,15.2210424 2.32664398,15.2210424 L11.6733953,15.2210424 C12.3626514,15.2210424 12.9266168,14.6401984 12.9266168,13.9303589 L12.9266168,4.09296652 C12.9266168,3.38310677 12.3626514,2.80244461 11.6733953,2.80244461 L2.32664398,2.80244461 Z"></path>
            </g>
        </g>
    </g>
</svg>