<?xml version="1.0" encoding="UTF-8"?>
<svg width="24px" height="19px" viewBox="0 0 24 19" version="1.1" xmlns="http://www.w3.org/2000/svg" xmlns:xlink="http://www.w3.org/1999/xlink">
    <title>编组</title>
    <g id="APP" stroke="none" stroke-width="1" fill="none" fill-rule="evenodd">
        <g id="我的" transform="translate(-176.000000, -739.000000)" fill="#BEC8DC" fill-rule="nonzero">
            <g id="编组" transform="translate(176.000000, 739.000000)">
                <g transform="translate(0.000000, 0.000000)" id="形状">
                    <path d="M23.16,2.73784615 C23.6464615,2.73784615 24,3.08953846 24,3.52061538 L24,14.9409231 C24,15.2150769 23.8670769,15.4495385 23.6030769,15.6055385 C23.3372308,15.7236923 23.028,15.7624615 22.7630769,15.6452308 L18.7864615,14.0021538 L18.7864615,16.9356923 C18.7864615,17.7572308 18.036,18.4615385 17.064,18.4615385 L1.72246154,18.4615385 C0.796615385,18.4615385 0,17.7969231 0,16.9356923 L0,1.52584615 C0,0.704307692 0.751384615,0 1.72338462,0 L17.1083077,0 C18.036,0 18.8307692,0.664615385 18.8307692,1.52584615 L18.8307692,4.45846154 L22.8073846,2.81538462 C22.9188634,2.76605042 23.0390405,2.73937926 23.1609231,2.73692308 L23.16,2.73784615 Z M12.5261538,9.56123077 C12.8046325,9.39451692 12.9750926,9.09379799 12.9750926,8.76923077 C12.9750926,8.44466355 12.8046325,8.14394462 12.5261538,7.97723077 L7.85907692,5.18030769 C7.5741465,5.00957263 7.21945435,5.00509238 6.93030228,5.16857598 C6.64115021,5.33205958 6.46213279,5.63829373 6.46153846,5.97046154 L6.46153846,11.5661538 C6.461801,11.8984868 6.64068792,12.205025 6.92990147,12.3687343 C7.21911501,12.5324437 7.57400498,12.52805 7.85907692,12.3572308 L12.5252308,9.56030769 L12.5261538,9.56123077 Z"></path>
                </g>
            </g>
        </g>
    </g>
</svg>