<?xml version="1.0" encoding="UTF-8"?>
<svg width="23px" height="23px" viewBox="0 0 23 23" version="1.1" xmlns="http://www.w3.org/2000/svg" xmlns:xlink="http://www.w3.org/1999/xlink">
    <title>编组 5</title>
    <g id="APP" stroke="none" stroke-width="1" fill="none" fill-rule="evenodd">
        <g id="我的" transform="translate(-19.000000, -521.000000)">
            <g id="编组-5" transform="translate(19.000000, 521.000000)">
                <g transform="translate(2.300000, 1.454750)">
                    <path d="M13.6666,6.82525 C16.2807846,6.82525 18.4,8.94446537 18.4,11.55865 L18.4,16.0451833 C18.4,18.659368 16.2807846,20.7785833 13.6666,20.7785833 L4.7334,20.7785833 C2.11921537,20.7785833 0,18.659368 0,16.0451833 L0,11.55865 C0,8.94446537 2.11921537,6.82525 4.7334,6.82525 L13.6666,6.82525 Z M13.6666,8.51575 L4.7334,8.51575 C3.10377841,8.51575 1.77335902,9.79678691 1.69422398,11.4067786 L1.6905,11.55865 L1.6905,16.0451833 C1.6905,17.6748049 2.97153691,19.0052243 4.5815286,19.0843594 L4.7334,19.0880833 L13.6666,19.0880833 C15.2962216,19.0880833 16.626641,17.8070464 16.705776,16.1970547 L16.7095,16.0451833 L16.7095,11.55865 C16.7095,9.92902841 15.4284631,8.59860902 13.8184714,8.51947398 L13.6666,8.51575 Z" id="矩形备份" fill="#241D32" fill-rule="nonzero"></path>
                    <path d="M9.88148148,0 C12.326485,0 14.5705042,1.18226325 15.926466,3.12072598 C16.1940415,3.50324792 16.100859,4.03025602 15.7183371,4.29783153 C15.3358151,4.56540704 14.808807,4.47222454 14.5412315,4.08970261 C13.4998916,2.60101864 11.7716629,1.6905 9.88148148,1.6905 C6.76804542,1.6905 4.25265741,4.14300332 4.25265741,7.15747222 C4.25265741,7.62429091 3.87422609,8.00272222 3.40740741,8.00272222 C2.94058872,8.00272222 2.56215741,7.62429091 2.56215741,7.15747222 C2.56215741,3.19965299 5.84385278,0 9.88148148,0 Z" id="路径" fill="#000000" fill-rule="nonzero"></path>
                    <ellipse id="椭圆形" fill="#4859DE" cx="9.2" cy="13.8019167" rx="1.7037037" ry="1.66111111"></ellipse>
                </g>
            </g>
        </g>
    </g>
</svg>