<?xml version="1.0" encoding="UTF-8"?>
<svg width="23px" height="23px" viewBox="0 0 23 23" version="1.1" xmlns="http://www.w3.org/2000/svg" xmlns:xlink="http://www.w3.org/1999/xlink">
    <title>编组 4</title>
    <g id="APP" stroke="none" stroke-width="1" fill="none" fill-rule="evenodd">
        <g id="我的" transform="translate(-20.000000, -578.000000)" fill-rule="nonzero">
            <g id="编组-4" transform="translate(20.000000, 578.000000)">
                <g transform="translate(2.300000, 3.066667)">
                    <path d="M13.6666,0 C16.2807846,0 18.4,2.11921537 18.4,4.7334 L18.4,12.8999333 C18.4,15.514118 16.2807846,17.6333333 13.6666,17.6333333 L4.7334,17.6333333 C2.11921537,17.6333333 0,15.514118 0,12.8999333 L0,4.7334 C0,2.11921537 2.11921537,0 4.7334,0 L13.6666,0 Z M13.6666,1.6905 L4.7334,1.6905 C3.10377841,1.6905 1.77335902,2.97153691 1.69422398,4.5815286 L1.6905,4.7334 L1.6905,12.8999333 C1.6905,14.5295549 2.97153691,15.8599743 4.5815286,15.9391094 L4.7334,15.9428333 L13.6666,15.9428333 C15.2962216,15.9428333 16.626641,14.6617964 16.705776,13.0518047 L16.7095,12.8999333 L16.7095,4.7334 C16.7095,3.10377841 15.4284631,1.77335902 13.8184714,1.69422398 L13.6666,1.6905 Z" id="矩形" fill="#241D32"></path>
                    <path d="M13.389565,4.96673364 C13.7628725,4.68644594 14.2927161,4.7618534 14.5730038,5.1351609 C14.8332709,5.48180358 14.7868417,5.96341871 14.4799902,6.25486631 L14.4045765,6.3185997 L9.70750577,9.84526636 C9.43416196,10.0504991 9.06744875,10.0691566 8.77712869,9.90123892 L8.69249423,9.84526636 L3.99542349,6.3185997 C3.62211599,6.038312 3.54670853,5.50846841 3.82699623,5.1351609 C4.08726337,4.78851822 4.56270882,4.69873833 4.92819259,4.91209524 L5.01043502,4.96673364 L9.2,8.1121 L13.389565,4.96673364 Z" id="路径-5" fill="#4859DE"></path>
                </g>
            </g>
        </g>
    </g>
</svg>