<?xml version="1.0" encoding="UTF-8"?>
<svg width="14px" height="19px" viewBox="0 0 14 19" version="1.1" xmlns="http://www.w3.org/2000/svg" xmlns:xlink="http://www.w3.org/1999/xlink">
    <title>编组</title>
    <g id="APP" stroke="none" stroke-width="1" fill="none" fill-rule="evenodd">
        <g id="注册" transform="translate(-78.000000, -348.000000)" fill-rule="nonzero">
            <g id="编组" transform="translate(78.000000, 348.000000)">
                <path d="M3.14847162,4.12886544 C3.58024017,4.12886544 3.93176856,4.49583113 3.93176856,4.95102902 L3.93176856,8.37604222 C3.93176856,8.82923483 3.58215066,9.1982058 3.14847162,9.1982058 C2.71670306,9.1982058 2.36517467,8.83124011 2.36517467,8.37604222 L2.36517467,4.95102902 C2.36708515,4.49783641 2.71670306,4.12886544 3.14847162,4.12886544 Z M10.8687227,4.04865435 C11.3004913,4.04865435 11.6520197,4.41562005 11.6520197,4.87081794 L11.6520197,5.34005277 C11.6520197,5.79324538 11.3024017,6.16221636 10.8687227,6.16221636 C10.4369541,6.16221636 10.0854258,5.79525066 10.0854258,5.34005277 L10.0854258,4.87081794 C10.0873362,4.41762533 10.4369541,4.04865435 10.8687227,4.04865435 L10.8687227,4.04865435 Z" id="形状" fill="#242424"></path>
                <path d="M12.7600983,7.55588391 C13.4077511,7.58195251 13.9350437,8.10934037 14,8.7791029 L14,8.7791029 L14,17.9191557 C13.900655,18.4625858 13.4956332,18.8897098 12.9798035,19 L12.9798035,19 L1.10616812,19 C0.531113537,18.9137731 0.076419214,18.4325066 0,17.8269129 L0,17.8269129 L0,8.91746702 C0.00191048035,8.16548813 0.584606987,7.55588391 1.30103712,7.55588391 L1.30103712,7.55588391 Z M7.632369,12.4547757 L6.367631,12.4547757 C5.93395197,12.4547757 5.58433406,12.8237467 5.58433406,13.2769393 C5.58433406,13.7301319 5.93586245,14.0970976 6.367631,14.0991029 L6.367631,14.0991029 L7.632369,14.0991029 C8.06604803,14.0991029 8.41566594,13.7301319 8.41566594,13.2769393 C8.41566594,12.8217414 8.06413755,12.4547757 7.632369,12.4547757 L7.632369,12.4547757 Z M7.0095524,0 C9.57341703,0 11.6520197,2.18174142 11.6520197,4.87282322 L11.6520197,4.87282322 L10.0873362,4.87282322 C10.0873362,3.08812665 8.70987991,1.6423219 7.0095524,1.6423219 C5.30922489,1.6423219 3.93176856,3.08812665 3.93176856,4.87282322 L3.93176856,4.87282322 L2.36708515,4.87282322 C2.36708515,2.18174142 4.44568777,0 7.0095524,0 Z" id="形状结合" fill="#FFFFFF"></path>
            </g>
        </g>
    </g>
</svg>