<?xml version="1.0" encoding="UTF-8"?>
<svg width="22px" height="22px" viewBox="0 0 22 22" version="1.1" xmlns="http://www.w3.org/2000/svg" xmlns:xlink="http://www.w3.org/1999/xlink">
    <title>编组 12</title>
    <g id="APP" stroke="none" stroke-width="1" fill="none" fill-rule="evenodd">
        <g id="首页" transform="translate(-306.000000, -731.000000)">
            <g id="编组-12" transform="translate(306.000000, 731.000000)">
                <circle id="椭圆形" fill="#BEC8DC" cx="11" cy="6" r="6"></circle>
                <path d="M9,4 C9.87447975,4.10749744 10.5377858,4.16124616 10.9899182,4.16124616 C11.4420506,4.16124616 12.1120779,4.10749744 13,4 C12.8447176,4.8026949 12.7670764,5.44882969 12.7670764,5.93840437 C12.7670764,6.42797905 12.8447176,7.11517759 13,8 C12.1537401,7.80885588 11.4844724,7.71328382 10.992197,7.71328382 C10.4999215,7.71328382 9.83585588,7.80885588 9,8 C9.14335917,7.09286567 9.21503875,6.40490754 9.21503875,5.93612561 C9.21503875,5.46734368 9.14335917,4.82196847 9,4 Z" id="矩形备份-3" fill="#FFFFFF" transform="translate(11.000000, 6.000000) rotate(45.000000) translate(-11.000000, -6.000000) "></path>
                <rect id="矩形" fill="#BEC8DC" x="0" y="13.6190476" width="22" height="8.38095238" rx="4"></rect>
            </g>
        </g>
    </g>
</svg>