<?xml version="1.0" encoding="UTF-8"?>
<svg width="23px" height="23px" viewBox="0 0 23 23" version="1.1" xmlns="http://www.w3.org/2000/svg" xmlns:xlink="http://www.w3.org/1999/xlink">
    <title>编组 8</title>
    <g id="APP" stroke="none" stroke-width="1" fill="none" fill-rule="evenodd">
        <g id="我的" transform="translate(-21.000000, -692.000000)">
            <g id="编组-11" transform="translate(21.000000, 692.000000)">
                <g id="编组-15" transform="translate(3.000000, 4.000000)">
                    <rect id="矩形" fill="#241D32" x="0" y="0" width="12.6793148" height="1.56028369" rx="0.780141844"></rect>
                    <rect id="矩形备份-6" fill="#4859DE" x="4.06512384" y="7.1678487" width="13.6472015" height="1.56028369" rx="0.780141844"></rect>
                    <path d="M12.4792042,5.29761821 L17.5232013,5.47660286 C17.9456647,5.49159384 18.2846108,5.8307185 18.2993793,6.25318978 C18.3128734,6.63920503 18.0108853,6.96307133 17.62487,6.97656541 C17.6084635,6.97713894 17.5920418,6.97713461 17.5756355,6.97655244 L12.5316385,6.79756779 C12.109175,6.7825768 11.770229,6.44345215 11.7554605,6.02098087 C11.7419664,5.63496561 12.0439545,5.31109931 12.4299697,5.29760524 C12.4463763,5.29703171 12.462798,5.29703603 12.4792042,5.29761821 Z" id="矩形备份-7" fill="#4859DE" transform="translate(15.027420, 6.137085) rotate(39.000000) translate(-15.027420, -6.137085) "></path>
                    <path d="M12.5304613,8.93329896 L17.5744584,9.11228361 C17.9969218,9.12727459 18.3358679,9.46639925 18.3506364,9.88887053 C18.3641305,10.2748858 18.0621424,10.5987521 17.6761271,10.6122462 C17.6597205,10.6128197 17.6432989,10.6128154 17.6268926,10.6122332 L12.5828956,10.4332485 C12.1604321,10.4182576 11.821486,10.0791329 11.8067176,9.65666162 C11.7932235,9.27064636 12.0952116,8.94678006 12.4812268,8.93328599 C12.4976334,8.93271246 12.5140551,8.93271679 12.5304613,8.93329896 Z" id="矩形备份-8" fill="#4859DE" transform="translate(15.078677, 9.772766) scale(1, -1) rotate(39.000000) translate(-15.078677, -9.772766) "></path>
                    <rect id="矩形备份-2" fill="#241D32" x="0" y="14.4397163" width="12.6793148" height="1.56028369" rx="0.780141844"></rect>
                    <path d="M-6.54817006,7.27408503 L8,7.27408503 C8.40091177,7.27408503 8.72591497,7.59908823 8.72591497,8 C8.72591497,8.40091177 8.40091177,8.72591497 8,8.72591497 L-6.54817006,8.72591497 C-6.94908183,8.72591497 -7.27408503,8.40091177 -7.27408503,8 C-7.27408503,7.59908823 -6.94908183,7.27408503 -6.54817006,7.27408503 Z" id="矩形备份-5" fill="#241D32" transform="translate(0.725915, 8.000000) rotate(-270.000000) translate(-0.725915, -8.000000) "></path>
                </g>
            </g>
        </g>
    </g>
</svg>