<?xml version="1.0" standalone="no"?><!DOCTYPE svg PUBLIC "-//W3C//DTD SVG 1.1//EN" "http://www.w3.org/Graphics/SVG/1.1/DTD/svg11.dtd"><svg t="1652626284463" class="icon" viewBox="0 0 1024 1024" version="1.1" xmlns="http://www.w3.org/2000/svg" p-id="4397" xmlns:xlink="http://www.w3.org/1999/xlink" width="200" height="200"><defs><style type="text/css">@font-face { font-family: feedback-iconfont; src: url("//at.alicdn.com/t/font_1031158_u69w8yhxdu.woff2?t=1630033759944") format("woff2"), url("//at.alicdn.com/t/font_1031158_u69w8yhxdu.woff?t=1630033759944") format("woff"), url("//at.alicdn.com/t/font_1031158_u69w8yhxdu.ttf?t=1630033759944") format("truetype"); }
</style></defs><path d="M512 252.928l373.76 174.08v389.12c0 22.528-18.432 40.96-40.96 40.96h-665.6c-22.528 0-40.96-18.432-40.96-40.96v-389.12l373.76-174.08z" fill="#FFFFFF" p-id="4398"></path><path d="M844.8 877.568h-665.6c-33.792 0-61.44-27.648-61.44-61.44v-401.92l394.24-183.808 394.24 183.808v401.92c0 33.792-27.648 61.44-61.44 61.44z m-686.08-437.248v376.32c0 11.264 9.216 20.48 20.48 20.48h665.6c11.264 0 20.48-9.216 20.48-20.48v-376.32l-353.28-164.352-353.28 164.352z" fill="#80878B" p-id="4399"></path><path d="M276.48 165.888h471.04c11.264 0 20.48 9.216 20.48 20.48v552.96c0 11.264-9.216 20.48-20.48 20.48h-471.04c-11.264 0-20.48-9.216-20.48-20.48v-552.96c0-11.264 9.216-20.48 20.48-20.48z" fill="#FFFFFF" p-id="4400"></path><path d="M747.52 780.288h-471.04c-22.528 0-40.96-18.432-40.96-40.96v-552.96c0-22.528 18.432-40.96 40.96-40.96h471.04c22.528 0 40.96 18.432 40.96 40.96v552.96c0 22.528-18.432 40.96-40.96 40.96z m-471.04-593.92v552.96h471.04v-552.96h-471.04z" fill="#80878B" p-id="4401"></path><path d="M512 595.968l373.76-148.48v368.64c0 22.528-18.432 40.96-40.96 40.96h-665.6c-22.528 0-40.96-18.432-40.96-40.96v-368.64l373.76 148.48z" fill="#FFFFFF" p-id="4402"></path><path d="M844.8 877.568h-665.6c-33.792 0-61.44-27.648-61.44-61.44v-398.848l394.24 156.672 394.24-156.672v398.848c0 33.792-27.648 61.44-61.44 61.44z m-686.08-399.872v338.432c0 11.264 9.216 20.48 20.48 20.48h665.6c11.264 0 20.48-9.216 20.48-20.48v-338.432l-353.28 140.288-353.28-140.288z" fill="#80878B" p-id="4403"></path><path d="M660.48 319.488h-302.08c-14.336 0-25.6-11.264-25.6-25.6s11.264-25.6 25.6-25.6h302.08c14.336 0 25.6 11.264 25.6 25.6s-11.264 25.6-25.6 25.6z m-302.08 61.44h153.6c14.336 0 25.6 11.264 25.6 25.6s-11.264 25.6-25.6 25.6h-153.6c-14.336 0-25.6-11.264-25.6-25.6 0-13.824 11.264-25.6 25.6-25.6z" fill="#FAB90A" p-id="4404"></path></svg>