<?xml version="1.0" standalone="no"?><!DOCTYPE svg PUBLIC "-//W3C//DTD SVG 1.1//EN" "http://www.w3.org/Graphics/SVG/1.1/DTD/svg11.dtd"><svg t="1626949698158" class="icon" viewBox="0 0 1207 1024" version="1.1" xmlns="http://www.w3.org/2000/svg" p-id="46685" xmlns:xlink="http://www.w3.org/1999/xlink" width="235.7421875" height="200"><defs><style type="text/css">@font-face { font-family: feedback-iconfont; src: url("//at.alicdn.com/t/font_1031158_1uhr8ri0pk5.eot?#iefix") format("embedded-opentype"), url("//at.alicdn.com/t/font_1031158_1uhr8ri0pk5.woff2") format("woff2"), url("//at.alicdn.com/t/font_1031158_1uhr8ri0pk5.woff") format("woff"), url("//at.alicdn.com/t/font_1031158_1uhr8ri0pk5.ttf") format("truetype"), url("//at.alicdn.com/t/font_1031158_1uhr8ri0pk5.svg#iconfont") format("svg"); }
</style></defs><path d="M698.292617 1008.25122c275.601952 0 499.02143-223.417781 499.02143-499.02143C1197.314047 233.627838 973.896266 10.20836 698.292617 10.20836 422.690665 10.20836 199.271187 233.62614 199.271187 509.22979c0 275.601952 223.417781 499.02143 499.02143 499.02143zM941.468513 280.959049l74.8432 74.844898L709.522831 662.592828l0.061107 0.062805-74.843199 74.844897-0.062805-0.062805-0.062805 0.062805-74.8432-74.844897 0.061108-0.062805-179.557819-179.557818 74.844897-74.8432 179.557819 179.557819L941.468513 280.959049z" p-id="46686" ></path><path d="M1.600064 1024h-0.577127" p-id="46687" ></path><path d="M-434.740271 680.499045" p-id="46688" ></path><path d="M125.17995 995.720772h-0.577128" p-id="46689" ></path></svg>