<?xml version="1.0" standalone="no"?><!DOCTYPE svg PUBLIC "-//W3C//DTD SVG 1.1//EN" "http://www.w3.org/Graphics/SVG/1.1/DTD/svg11.dtd"><svg t="1652626193477" class="icon" viewBox="0 0 1024 1024" version="1.1" xmlns="http://www.w3.org/2000/svg" p-id="1629" xmlns:xlink="http://www.w3.org/1999/xlink" width="200" height="200"><defs><style type="text/css">@font-face { font-family: feedback-iconfont; src: url("//at.alicdn.com/t/font_1031158_u69w8yhxdu.woff2?t=1630033759944") format("woff2"), url("//at.alicdn.com/t/font_1031158_u69w8yhxdu.woff?t=1630033759944") format("woff"), url("//at.alicdn.com/t/font_1031158_u69w8yhxdu.ttf?t=1630033759944") format("truetype"); }
</style></defs><path d="M928 736H800V608c0-16-12.8-32-32-32s-32 12.8-32 32v128H608c-16 0-32 12.8-32 32s12.8 32 32 32h128v128c0 16 12.8 32 32 32s32-12.8 32-32V800h128c16 0 32-12.8 32-32s-12.8-32-32-32zM768 320c0-140.8-115.2-256-256-256S256 179.2 256 320c0 89.6 44.8 169.6 115.2 214.4C192 592 64 761.6 64 960h64c0-211.2 172.8-384 384-384 140.8 0 256-115.2 256-256zM512 512c-105.6 0-192-86.4-192-192s86.4-192 192-192 192 86.4 192 192-86.4 192-192 192z" p-id="1630" fill="#e6e6e6"></path></svg>